<?xml version="1.0" encoding="utf-8"?>
<!-- Generator: Adobe Illustrator 24.3.0, SVG Export Plug-In . SVG Version: 6.00 Build 0)  -->
<svg version="1.1" id="Layer_1" xmlns="http://www.w3.org/2000/svg" xmlns:xlink="http://www.w3.org/1999/xlink" x="0px" y="0px"
	 viewBox="0 0 512 512" style="enable-background:new 0 0 512 512;" xml:space="preserve">
<style type="text/css">
	.st0{fill:#E53238;}
	.st1{fill:#0064D2;}
	.st2{fill:#F5AF02;}
	.st3{fill:#86B817;}
</style>
<g id="XMLID_1_">
	<path id="e" class="st0" d="M66.16,198.18C30.05,198.18,0,213.54,0,259.76c0,36.65,20.21,59.69,67.1,59.69
		c55.24,0,58.75-36.38,58.75-36.38H99.03c0,0-5.79,19.54-33.68,19.54c-22.77,0-39.07-15.36-39.07-36.92h102.27v-13.47
		C128.67,230.92,115.2,198.18,66.16,198.18L66.16,198.18z M65.21,215.43c21.56,0,36.38,13.2,36.38,33.15H27.08
		C27.08,227.42,46.35,215.43,65.21,215.43z"/>
	<path id="b" class="st1" d="M128.67,153.45v142.82c0,8.08-0.54,19.54-0.54,19.54h25.47c0,0,0.94-8.22,0.94-15.63
		c0,0,12.67,19.67,46.89,19.67c36.11,0,60.63-25.06,60.63-60.9c0-33.41-22.5-60.23-60.5-60.23c-35.57,0-46.62,19.27-46.62,19.27
		v-64.4h-26.27V153.45z M194.83,216.24c24.52,0,40.15,18.19,40.15,42.58c0,26.14-18.05,43.25-39.88,43.25
		c-26.14,0-40.29-20.48-40.29-43.12C154.81,237.93,167.48,216.24,194.83,216.24z"/>
	<path id="a" class="st2" d="M325.39,198.18c-54.3,0-57.8,29.78-57.8,34.49h27.08c0,0,1.48-17.38,28.97-17.38
		c17.92,0,31.66,8.22,31.66,23.85v5.66h-31.66c-42.04,0-64.4,12.26-64.4,37.32c0,24.66,20.61,38,48.37,38
		c37.86,0,50.12-20.88,50.12-20.88c0,8.35,0.67,16.57,0.67,16.57h23.98c0,0-0.94-10.11-0.94-16.71v-56.19
		C381.31,205.86,351.66,198.18,325.39,198.18L325.39,198.18z M355.3,261.64v7.41c0,9.7-6.06,33.95-41.36,33.95
		c-19.4,0-27.62-9.7-27.62-20.88C286.32,261.64,314.21,261.64,355.3,261.64L355.3,261.64z"/>
	<path id="y" class="st3" d="M366.75,202.9h30.45l43.65,87.44l43.52-87.44H512l-79.36,155.76h-28.97l22.91-43.39L366.75,202.9z"/>
</g>
</svg>
