<?xml version="1.0" encoding="utf-8"?>
<!-- Generator: Adobe Illustrator 26.5.0, SVG Export Plug-In . SVG Version: 6.00 Build 0)  -->
<svg version="1.1" id="Layer_1" xmlns="http://www.w3.org/2000/svg" xmlns:xlink="http://www.w3.org/1999/xlink" x="0px" y="0px"
	 viewBox="0 0 512 512" style="enable-background:new 0 0 512 512;" xml:space="preserve">
<style type="text/css">
	.st0{fill:#262626;}
</style>
<path class="st0" d="M26.39,183.96c-10.52,4.35-22.02,16.83-25.67,32.4c-4.63,19.78,14.59,28.05,16.13,25.25
	c1.82-3.23-3.37-4.35-4.49-14.59c-1.4-13.18,4.77-27.91,12.48-34.5c1.4-1.26,1.4,0.42,1.4,3.51c0,5.47-0.28,55.26-0.28,65.64
	c0,14.03-0.56,18.51-1.68,22.86c-1.12,4.49-2.81,7.43-1.4,8.56c1.4,1.26,7.57-1.82,11.08-6.73c4.21-5.89,5.75-13.04,6.03-20.9
	c0.28-9.4,0.28-24.12,0.28-32.68c0-7.71,0.14-30.43-0.14-44.18C40,185.65,30.74,182.14,26.39,183.96 M398.48,249.6
	c-0.28,7.29-1.96,13.04-3.93,16.97c-3.93,7.85-11.92,10.24-15.29-0.98c-1.82-6.17-1.96-16.27-0.56-24.82
	c1.4-8.7,5.19-15.29,11.5-14.59C396.24,226.88,399.18,234.88,398.48,249.6L398.48,249.6z M293.57,294.9
	c-0.14,12.06-1.96,22.72-6.03,25.81c-5.75,4.35-13.6,1.12-12.06-7.71c1.4-7.85,8.13-15.85,18.09-25.67
	C293.57,287.47,293.57,289.71,293.57,294.9L293.57,294.9z M292.03,249.6c-0.42,6.59-2.1,13.32-3.93,17.11
	c-3.93,7.85-12.06,10.24-15.29-0.98c-2.24-7.71-1.68-17.53-0.56-23.84c1.54-8.13,5.05-15.57,11.5-15.57
	C289.78,226.18,292.87,233.05,292.03,249.6L292.03,249.6z M231.3,249.46c-0.42,7.01-1.82,12.9-3.93,17.25
	c-3.93,7.71-11.92,10.24-15.29-0.98c-2.52-7.99-1.68-19.07-0.56-24.96c1.54-8.84,5.47-15.01,11.5-14.45
	C229.06,226.88,232,234.88,231.3,249.46L231.3,249.46z M509.56,257.74c-1.54,0-2.24,1.54-2.81,4.21
	c-1.96,9.12-4.07,11.22-6.73,11.22c-2.95,0-5.75-4.49-6.45-13.6c-0.56-7.15-0.42-20.34,0.28-33.38c0.14-2.66-0.56-5.33-7.85-7.99
	c-3.09-1.12-7.57-2.81-9.82,2.66c-6.31,15.29-8.84,27.49-9.4,32.4c0,0.28-0.28,0.28-0.42-0.28c-0.42-3.93-1.26-11.08-1.26-26.23
	c0-2.95-0.7-5.47-3.93-7.57c-2.1-1.4-8.56-3.65-10.8-0.84c-1.96,2.24-4.35,8.42-6.73,15.85c-1.96,5.89-3.37,9.96-3.37,9.96
	s0-15.99,0-22.16c0-2.24-1.54-3.09-2.1-3.23c-2.1-0.56-6.31-1.68-8.13-1.68c-2.24,0-2.81,1.26-2.81,3.09
	c0,0.28-0.28,21.18-0.28,35.76c0,0.7,0,1.26,0,2.1c-1.26,6.73-5.19,15.85-9.54,15.85c-4.35,0-6.31-3.79-6.31-21.18
	c0-10.1,0.28-14.59,0.42-21.88c0.14-4.21,0.28-7.43,0.28-8.27c0-2.24-3.93-3.37-5.75-3.79c-1.82-0.42-3.37-0.56-4.63-0.56
	c-1.82,0.14-2.95,1.26-2.95,2.81c0,0.84,0,2.52,0,2.52c-2.24-3.51-5.89-6.03-8.27-6.73c-6.45-1.96-13.32-0.28-18.51,7.01
	c-4.07,5.75-6.59,12.2-7.57,21.46c-0.7,6.73-0.42,13.6,0.84,19.49c-1.54,6.59-4.35,9.26-7.43,9.26c-4.49,0-7.71-7.29-7.29-19.92
	c0.28-8.27,1.96-14.17,3.79-22.58c0.84-3.65,0.14-5.47-1.4-7.29c-1.4-1.68-4.49-2.52-8.98-1.4c-3.23,0.7-7.71,1.54-11.78,2.1
	c0,0,0.28-0.98,0.42-2.81c1.12-9.26-8.98-8.42-12.2-5.47c-1.96,1.82-3.23,3.79-3.65,7.57c-0.84,5.89,4.07,8.7,4.07,8.7
	c-1.54,7.29-5.47,16.69-9.54,23.56c-2.1,3.65-3.79,6.45-5.89,9.26c0-1.12,0-2.1,0-3.23c0-15.29,0.14-27.21,0.28-31.56
	c0.14-4.21,0.28-7.43,0.28-8.13c0-1.68-0.98-2.24-2.95-3.09c-1.82-0.7-3.93-1.12-6.03-1.4c-2.81-0.28-4.35,1.26-4.35,2.95
	c0,0.28,0,2.38,0,2.38c-2.24-3.51-5.89-6.03-8.27-6.73c-6.45-1.96-13.32-0.28-18.51,7.01c-4.07,5.75-6.73,13.74-7.57,21.32
	c-0.7,7.15-0.56,13.18,0.42,18.37c-0.98,5.19-4.07,10.52-7.43,10.52c-4.35,0-6.73-3.79-6.73-21.18c0-10.1,0.28-14.59,0.42-21.88
	c0.14-4.21,0.28-7.43,0.28-8.27c0-2.24-3.93-3.37-5.75-3.79c-1.96-0.42-3.51-0.56-4.77-0.56c-1.68,0.14-2.81,1.68-2.81,2.66v2.52
	c-2.24-3.51-5.89-6.03-8.27-6.73c-6.45-1.96-13.32-0.14-18.51,7.01c-3.37,4.63-6.03,9.82-7.57,21.32c-0.42,3.37-0.56,6.45-0.56,9.26
	c-1.4,8.27-7.29,17.67-12.2,17.67c-2.81,0-5.61-5.47-5.61-17.25c0-15.71,0.98-37.87,1.12-40.11c0,0,6.17-0.14,7.29-0.14
	c3.09,0,5.89,0,9.96-0.14c2.1-0.14,4.07-7.43,1.96-8.42c-0.98-0.42-7.71-0.7-10.38-0.84c-2.24,0-8.56-0.56-8.56-0.56
	s0.56-14.73,0.7-16.41c0.14-1.26-1.54-1.96-2.52-2.38c-2.38-0.98-4.49-1.4-6.87-1.96c-3.51-0.7-5.05,0-5.33,2.95
	c-0.42,4.35-0.7,17.25-0.7,17.25c-2.52,0-11.22-0.56-13.74-0.56c-2.38,0-4.91,10.1-1.68,10.24c3.79,0.14,10.24,0.28,14.59,0.42
	c0,0-0.14,22.58-0.14,29.59c0,0.7,0,1.4,0,2.1c-2.38,12.34-10.8,19.07-10.8,19.07c1.82-8.13-1.82-14.31-8.42-19.49
	c-2.38-1.96-7.29-5.61-12.62-9.54c0,0,3.09-3.09,5.89-9.26c1.96-4.35,2.1-9.4-2.81-10.52c-7.99-1.82-14.45,4.07-16.41,10.24
	c-1.54,4.77-0.7,8.42,2.24,12.06c0.28,0.28,0.42,0.56,0.7,0.84c-1.82,3.51-4.21,8.13-6.31,11.64c-5.75,9.96-10.1,17.95-13.46,17.95
	c-2.66,0-2.66-7.99-2.66-15.57c0-6.45,0.42-16.27,0.84-26.37c0.14-3.37-1.54-5.19-4.35-7.01c-1.68-0.98-5.33-3.09-7.43-3.09
	c-3.09,0-12.2,0.42-20.76,25.25c-1.12,3.09-3.23,8.84-3.23,8.84l0.14-29.87c0-0.7-0.42-1.4-1.26-1.82c-1.4-0.84-5.33-2.38-8.7-2.38
	c-1.68,0-2.38,0.7-2.38,2.24l-0.28,46.7c0,3.51,0.14,7.71,0.42,9.54c0.28,1.82,0.98,3.23,1.68,4.21c0.7,0.84,1.54,1.54,2.81,1.82
	c1.26,0.28,7.99,1.12,8.42-1.4c0.42-3.09,0.42-6.45,4.07-19.07c5.61-19.64,12.76-29.17,16.27-32.54c0.56-0.56,1.26-0.56,1.26,0.28
	c-0.14,4.35-0.7,15.01-0.98,24.12c-0.98,24.4,3.51,28.89,9.82,28.89c4.91,0,11.64-4.77,19.07-16.97c4.63-7.57,8.98-15.01,12.2-20.48
	c2.24,2.1,4.77,4.21,7.15,6.59c5.75,5.47,7.71,10.66,6.45,15.71c-0.98,3.79-4.63,7.71-11.08,3.93c-1.82-1.12-2.66-1.96-4.63-3.23
	c-0.98-0.7-2.52-0.84-3.51-0.14c-2.38,1.82-3.79,4.21-4.63,7.01c-0.7,2.81,1.96,4.21,4.91,5.61c2.52,1.12,7.85,2.1,11.36,2.24
	c13.32,0.42,23.98-6.45,31.42-24.26c1.26,15.29,7.01,23.98,16.83,23.98c6.59,0,13.18-8.56,16.13-16.83c0.84,3.37,2.1,6.45,3.65,8.84
	c7.57,12.06,22.3,9.4,29.73-0.84c2.24-3.09,2.66-4.35,2.66-4.35c1.12,9.68,8.84,13.04,13.32,13.04c5.05,0,10.1-2.38,13.74-10.52
	c0.42,0.84,0.84,1.68,1.4,2.52c7.57,12.06,22.3,9.4,29.73-0.84c0.28-0.42,0.7-0.98,0.98-1.26l0.28,6.31c0,0-4.21,3.93-6.87,6.31
	c-11.36,10.52-20.06,18.37-20.76,27.63c-0.84,11.78,8.7,16.13,15.99,16.69c7.71,0.56,14.31-3.65,18.23-9.54
	c3.51-5.19,5.89-16.41,5.75-27.63c0-4.49-0.14-10.1-0.28-16.13c4.07-4.63,8.56-10.52,12.62-17.39c4.49-7.43,9.4-17.53,11.92-25.39
	c0,0,4.21,0,8.7-0.28c1.4-0.14,1.82,0.14,1.54,1.26c-0.28,1.26-5.75,22.02-0.84,35.76c3.37,9.4,10.94,12.48,15.43,12.48
	c5.19,0,10.24-3.93,12.9-9.82c0.28,0.7,0.7,1.26,0.98,1.82c7.57,12.06,22.3,9.4,29.73-0.84c1.68-2.24,2.66-4.35,2.66-4.35
	c1.54,9.96,9.4,13.04,13.74,13.04c4.63,0,8.98-1.96,12.62-10.38c0.14,3.65,0.42,6.73,0.7,7.71c0.28,0.56,1.54,1.26,2.52,1.68
	c4.21,1.54,8.56,0.84,10.1,0.56c1.12-0.28,1.96-1.12,2.1-3.37c0.28-6.03,0.14-16.13,1.96-23.7c3.09-12.62,5.89-17.53,7.29-19.92
	c0.7-1.4,1.68-1.54,1.68-0.14c0,2.95,0.14,11.5,1.4,22.86c0.84,8.42,2.1,13.46,2.95,15.01c2.52,4.49,5.75,4.77,8.27,4.77
	c1.68,0,5.05-0.42,4.77-3.37c-0.14-1.4,0.14-10.1,3.09-22.44c1.96-8.13,5.33-15.43,6.45-18.09c0.42-0.98,0.7-0.14,0.7,0
	c-0.28,5.61-0.84,23.84,1.4,33.94c3.09,13.6,12.06,15.01,15.15,15.01c6.59,0,12.06-5.05,13.88-18.37
	C512.22,260.12,511.66,257.74,509.56,257.74"/>
</svg>
