<?xml version="1.0" encoding="utf-8"?>
<!-- Generator: Adobe Illustrator 27.0.0, SVG Export Plug-In . SVG Version: 6.00 Build 0)  -->
<svg version="1.1"
	 id="Layer_1" xmlns:dc="http://purl.org/dc/elements/1.1/" xmlns:cc="http://creativecommons.org/ns#" xmlns:rdf="http://www.w3.org/1999/02/22-rdf-syntax-ns#"
	 xmlns="http://www.w3.org/2000/svg" xmlns:xlink="http://www.w3.org/1999/xlink" x="0px" y="0px" viewBox="0 0 512 512"
	 style="enable-background:new 0 0 512 512;" xml:space="preserve">
<style type="text/css">
	.st0{fill:#007DC6;}
	.st1{fill:#FFC220;}
</style>
<g transform="matrix(1.25 0 0 -1.25 -279.62 519.24)">
	<g transform="matrix(.25 0 0 .25 224.45 297.78)">
		<path class="st0" d="M-3.16-233.31c0,0,40.82-167.07,47.27-194.15c7.58-31.7,21.32-43.35,60.74-35.49l25.39,103.53
			c6.45,25.67,10.8,44.05,14.87,70.28h0.7c2.95-26.37,7.01-44.61,12.34-70.28c0,0,10.38-46.99,15.71-71.68
			c5.33-24.69,20.06-40.26,58.78-31.84l60.6,229.64h-48.96l-20.76-99.32c-5.61-28.9-10.66-51.48-14.45-77.85h-0.7
			c-3.51,26.23-8,47.83-13.75,76.03l-21.6,101.14h-51.06l-23.01-98.62c-6.59-30.02-12.63-54.15-16.55-79.68h-0.7
			c-3.93,23.99-9.26,54.43-15.01,83.47c0,0-13.75,70.56-18.52,94.83H-3.16L-3.16-233.31z M463.69-233.31v-229.64h46.57v48.82v180.82
			H463.69L463.69-233.31z M1120.33-233.31v-169.32c0-23.29,4.35-39.7,13.75-49.66c8.28-8.7,21.74-14.45,38.02-14.45
			c13.75,0,27.35,2.67,33.81,5.05l-0.56,36.47c-4.77-1.12-10.24-2.1-17.68-2.1c-15.85,0-21.18,10.24-21.18,31.14v64.81h40.54v43.91
			h-40.54v54.29L1120.33-233.31L1120.33-233.31z M359.46-286.62c-29.04,0-52.04-8.14-64.53-15.43l9.12-31.42
			c11.5,7.29,29.74,13.19,46.99,13.19c28.62,0.14,33.39-16.13,33.39-26.65v-2.52c-62.42,0.14-101.84-21.46-101.84-65.51
			c0-26.93,20.06-52.04,54.99-52.04c21.46,0,39.42,8.56,50.22,22.3h1.12c0,0,7.15-29.88,46.43-18.38
			c-2.1,12.34-2.67,25.67-2.67,41.52v61.3C432.55-320.99,415.85-286.62,359.46-286.62L359.46-286.62z M638.33-286.62
			c-29.18,0-42.22-14.73-50.22-27.35h-0.7v23.43h-44.47v-172.54h46.85v101.14c0,4.77,0.56,9.82,2.24,14.17
			c3.93,10.24,13.33,22.16,28.48,22.16c18.94,0,27.78-15.99,27.78-39v-98.34h46.85v102.4c0,4.49,0.56,9.96,1.96,14.03
			c3.79,11.64,14.03,21.04,28.2,21.04c19.22,0,28.34-15.71,28.34-42.93v-94.55h46.85v101.56c0,53.59-27.21,74.77-57.93,74.77
			c-13.61,0-24.27-3.37-34.09-9.4c-8.14-5.05-15.43-12.06-21.88-21.46h-0.7C678.45-298.82,661.06-286.62,638.33-286.62
			L638.33-286.62z M895.75-286.62c-29.04,0-51.9-8.14-64.53-15.43l9.26-31.42c11.5,7.29,29.74,13.19,46.99,13.19
			c28.62,0.14,33.25-16.13,33.25-26.65v-2.52c-62.42,0.14-101.84-21.46-101.84-65.51c0-26.93,20.06-52.04,54.99-52.04
			c21.46,0,39.42,8.56,50.22,22.3h1.12c0,0,7.15-29.88,46.43-18.38c-2.1,12.34-2.67,25.67-2.67,41.52v61.3
			C968.83-320.99,952.14-286.62,895.75-286.62L895.75-286.62z M1090.31-286.62c-17.96,0-38.44-11.64-46.99-36.47h-1.26v32.54h-42.22
			v-172.54h48.12v88.38c0,4.77,0.28,8.98,0.98,12.77c3.51,18.52,17.67,30.3,38.02,30.3c5.61,0,9.54-0.56,13.89-1.26v45.17
			C1097.33-286.9,1094.94-286.62,1090.31-286.62L1090.31-286.62z M385.97-379.76v-21.46c0-3.23-0.28-6.45-1.12-9.4
			c-3.65-11.92-15.99-22.02-31.42-22.02c-12.91,0-23.15,7.29-23.15,22.87C330.14-386.22,356.23-379.62,385.97-379.76L385.97-379.76z
			 M922.26-379.76v-21.46c0-3.23-0.28-6.45-1.12-9.4c-3.65-11.92-15.99-22.02-31.42-22.02c-12.91,0-23.15,7.29-23.15,22.87
			C866.43-386.22,892.52-379.62,922.26-379.76L922.26-379.76z"/>
		<path class="st1" d="M1458.96-150.27c-15.01,0-27.07-8.42-27.07-18.66l9.12-103.53c0.98-6.17,8.7-11.08,17.82-11.08
			c9.26,0,16.83,4.77,17.96,11.08l9.12,103.53C1486.04-158.68,1474.11-150.27,1458.96-150.27L1458.96-150.27z M1309.99-233.31
			c-7.86-0.14-16.69-6.03-22.3-15.85c-7.58-13.05-6.17-27.63,2.67-32.68l94.27-43.91c5.89-2.24,13.89,1.96,18.52,9.96l0,0
			c4.63,8,4.35,16.97-0.56,21.04l-85.15,59.62C1315.04-233.87,1312.65-233.31,1309.99-233.31L1309.99-233.31z M1607.94-233.31
			c-2.67,0-5.05-0.56-7.29-1.82l-85.15-59.62c-4.91-4.07-5.19-13.05-0.56-21.04l0,0c4.63-8,12.63-12.2,18.52-9.96l94.27,43.91
			c8.84,5.05,10.1,19.64,2.67,32.68C1624.63-239.48,1615.79-233.59,1607.94-233.31L1607.94-233.31z M1387.98-369.94
			c-1.26,0-2.38-0.14-3.51-0.56l-94.27-43.77c-8.84-5.19-10.24-19.64-2.67-32.83c7.58-13.05,20.76-19.22,29.6-14.03l85.15,59.62
			c4.91,4.07,5.19,13.05,0.56,21.04l0,0C1399.34-374.01,1393.31-369.94,1387.98-369.94L1387.98-369.94z M1529.94-369.94
			c-5.33-0.14-11.22-4.07-15.01-10.52l0,0c-4.63-8-4.21-16.97,0.56-21.04l85.15-59.62c8.84-5.05,22.16,1.12,29.6,14.03
			c7.43,13.05,6.17,27.63-2.67,32.83l-94.27,43.77C1532.33-370.08,1531.21-369.94,1529.94-369.94L1529.94-369.94z M1458.96-412.87
			c-9.26,0-16.83-4.77-17.82-11.08l-9.12-103.53c0-10.24,11.92-18.66,27.07-18.66s27.07,8.42,27.07,18.66l-9.12,103.53
			C1475.8-417.64,1468.22-412.87,1458.96-412.87L1458.96-412.87L1458.96-412.87z"/>
	</g>
</g>
</svg>
